<mxfile host="Electron" modified="2025-03-05T09:44:31.454Z" agent="Mozilla/5.0 (Windows NT 10.0; Win64; x64) AppleWebKit/537.36 (KHTML, like Gecko) draw.io/24.5.3 Chrome/124.0.6367.207 Electron/30.0.6 Safari/537.36" etag="Dq-xAxK5waQAeWTVikRu" version="24.5.3" type="device">
  <diagram name="Seite-1" id="HLHpH_ou4ANuys2L_7Qh">
    <mxGraphModel dx="1430" dy="858" grid="1" gridSize="10" guides="1" tooltips="1" connect="1" arrows="1" fold="1" page="1" pageScale="1" pageWidth="827" pageHeight="1169" math="0" shadow="0">
      <root>
        <mxCell id="0" />
        <mxCell id="1" parent="0" />
        <mxCell id="yORRglNltTWxj8U87w2F-4" value="" style="endArrow=none;dashed=1;html=1;strokeWidth=1;rounded=0;fillColor=#f5f5f5;strokeColor=#C4C4C4;jumpSize=6;" edge="1" parent="1">
          <mxGeometry width="50" height="50" relative="1" as="geometry">
            <mxPoint x="600" y="700" as="sourcePoint" />
            <mxPoint x="600" y="360" as="targetPoint" />
          </mxGeometry>
        </mxCell>
        <mxCell id="hARTjh3Sy_JEfjSnx1Wy-16" value="" style="endArrow=none;dashed=1;html=1;strokeWidth=1;rounded=0;fillColor=#f5f5f5;strokeColor=#C4C4C4;jumpSize=6;" parent="1" edge="1" source="yORRglNltTWxj8U87w2F-19">
          <mxGeometry width="50" height="50" relative="1" as="geometry">
            <mxPoint x="360" y="700" as="sourcePoint" />
            <mxPoint x="360" y="360" as="targetPoint" />
          </mxGeometry>
        </mxCell>
        <mxCell id="hARTjh3Sy_JEfjSnx1Wy-17" value="" style="endArrow=none;dashed=1;html=1;strokeWidth=1;rounded=0;fillColor=#f5f5f5;strokeColor=#C4C4C4;jumpSize=6;" parent="1" edge="1">
          <mxGeometry width="50" height="50" relative="1" as="geometry">
            <mxPoint x="440" y="700" as="sourcePoint" />
            <mxPoint x="440" y="360" as="targetPoint" />
          </mxGeometry>
        </mxCell>
        <mxCell id="hARTjh3Sy_JEfjSnx1Wy-18" value="" style="endArrow=none;dashed=1;html=1;strokeWidth=1;rounded=0;fillColor=#f5f5f5;strokeColor=#C4C4C4;jumpSize=6;" parent="1" edge="1">
          <mxGeometry width="50" height="50" relative="1" as="geometry">
            <mxPoint x="520" y="700" as="sourcePoint" />
            <mxPoint x="520" y="360" as="targetPoint" />
          </mxGeometry>
        </mxCell>
        <mxCell id="hARTjh3Sy_JEfjSnx1Wy-15" value="" style="endArrow=none;dashed=1;html=1;strokeWidth=1;rounded=0;fillColor=#f5f5f5;strokeColor=#C4C4C4;jumpSize=6;" parent="1" edge="1">
          <mxGeometry width="50" height="50" relative="1" as="geometry">
            <mxPoint x="240" y="700" as="sourcePoint" />
            <mxPoint x="240" y="360" as="targetPoint" />
          </mxGeometry>
        </mxCell>
        <mxCell id="vn1dnEoQ3g9eWZXEqQMI-1" value="" style="endArrow=none;html=1;rounded=0;" parent="1" edge="1">
          <mxGeometry width="50" height="50" relative="1" as="geometry">
            <mxPoint x="240" y="650" as="sourcePoint" />
            <mxPoint x="240" y="640" as="targetPoint" />
          </mxGeometry>
        </mxCell>
        <mxCell id="vn1dnEoQ3g9eWZXEqQMI-8" value="" style="endArrow=none;html=1;rounded=0;" parent="1" edge="1">
          <mxGeometry width="50" height="50" relative="1" as="geometry">
            <mxPoint x="360" y="650" as="sourcePoint" />
            <mxPoint x="360" y="640" as="targetPoint" />
          </mxGeometry>
        </mxCell>
        <mxCell id="vn1dnEoQ3g9eWZXEqQMI-9" value="Entwicklung" style="text;html=1;align=left;verticalAlign=middle;whiteSpace=wrap;rounded=0;rotation=-90;" parent="1" vertex="1">
          <mxGeometry x="203.75" y="371.25" width="112.5" height="30" as="geometry" />
        </mxCell>
        <mxCell id="vn1dnEoQ3g9eWZXEqQMI-14" value="Zeit" style="text;html=1;align=center;verticalAlign=middle;whiteSpace=wrap;rounded=0;" parent="1" vertex="1">
          <mxGeometry x="730" y="625" width="30" height="30" as="geometry" />
        </mxCell>
        <mxCell id="vn1dnEoQ3g9eWZXEqQMI-16" value="" style="endArrow=none;html=1;rounded=0;" parent="1" edge="1">
          <mxGeometry width="50" height="50" relative="1" as="geometry">
            <mxPoint x="440" y="650" as="sourcePoint" />
            <mxPoint x="440" y="640" as="targetPoint" />
          </mxGeometry>
        </mxCell>
        <mxCell id="vn1dnEoQ3g9eWZXEqQMI-17" value="" style="endArrow=none;html=1;rounded=0;" parent="1" edge="1">
          <mxGeometry width="50" height="50" relative="1" as="geometry">
            <mxPoint x="520" y="650" as="sourcePoint" />
            <mxPoint x="520" y="640" as="targetPoint" />
          </mxGeometry>
        </mxCell>
        <mxCell id="vn1dnEoQ3g9eWZXEqQMI-24" value="Umsatz/Gewinn" style="text;html=1;align=center;verticalAlign=middle;whiteSpace=wrap;rounded=0;rotation=0;" parent="1" vertex="1">
          <mxGeometry x="135" y="334" width="130" height="30" as="geometry" />
        </mxCell>
        <mxCell id="vn1dnEoQ3g9eWZXEqQMI-41" value="" style="endArrow=none;html=1;rounded=0;" parent="1" edge="1">
          <mxGeometry width="50" height="50" relative="1" as="geometry">
            <mxPoint x="190" y="640" as="sourcePoint" />
            <mxPoint x="200" y="640" as="targetPoint" />
          </mxGeometry>
        </mxCell>
        <mxCell id="hARTjh3Sy_JEfjSnx1Wy-11" value="Deckungsbeitrag, Gewinn, Cashflow" style="text;html=1;align=center;verticalAlign=middle;whiteSpace=wrap;rounded=0;rotation=0;fillColor=default;strokeColor=none;fontColor=#9673A6;" parent="1" vertex="1">
          <mxGeometry x="448" y="583" width="200" height="20" as="geometry" />
        </mxCell>
        <mxCell id="yORRglNltTWxj8U87w2F-2" value="" style="endArrow=none;dashed=1;html=1;strokeWidth=1;rounded=0;fillColor=#f5f5f5;strokeColor=#C4C4C4;jumpSize=6;" edge="1" parent="1">
          <mxGeometry width="50" height="50" relative="1" as="geometry">
            <mxPoint x="280" y="700" as="sourcePoint" />
            <mxPoint x="280" y="360" as="targetPoint" />
          </mxGeometry>
        </mxCell>
        <mxCell id="yORRglNltTWxj8U87w2F-3" value="" style="endArrow=none;html=1;rounded=0;" edge="1" parent="1">
          <mxGeometry width="50" height="50" relative="1" as="geometry">
            <mxPoint x="280" y="650" as="sourcePoint" />
            <mxPoint x="280" y="640" as="targetPoint" />
          </mxGeometry>
        </mxCell>
        <mxCell id="yORRglNltTWxj8U87w2F-5" value="" style="endArrow=none;html=1;rounded=0;" edge="1" parent="1">
          <mxGeometry width="50" height="50" relative="1" as="geometry">
            <mxPoint x="600" y="650" as="sourcePoint" />
            <mxPoint x="600" y="640" as="targetPoint" />
          </mxGeometry>
        </mxCell>
        <mxCell id="yORRglNltTWxj8U87w2F-6" value="" style="endArrow=none;dashed=1;html=1;strokeWidth=1;rounded=0;fillColor=#f5f5f5;strokeColor=#C4C4C4;jumpSize=6;" edge="1" parent="1">
          <mxGeometry width="50" height="50" relative="1" as="geometry">
            <mxPoint x="700" y="700" as="sourcePoint" />
            <mxPoint x="700" y="360" as="targetPoint" />
          </mxGeometry>
        </mxCell>
        <mxCell id="yORRglNltTWxj8U87w2F-7" value="" style="endArrow=none;html=1;rounded=0;" edge="1" parent="1">
          <mxGeometry width="50" height="50" relative="1" as="geometry">
            <mxPoint x="700" y="650" as="sourcePoint" />
            <mxPoint x="700" y="640" as="targetPoint" />
          </mxGeometry>
        </mxCell>
        <mxCell id="yORRglNltTWxj8U87w2F-9" value="Konzept" style="text;html=1;align=left;verticalAlign=middle;whiteSpace=wrap;rounded=0;rotation=-90;" vertex="1" parent="1">
          <mxGeometry x="164" y="371.25" width="112.5" height="30" as="geometry" />
        </mxCell>
        <mxCell id="yORRglNltTWxj8U87w2F-10" value="Einführung" style="text;html=1;align=left;verticalAlign=middle;whiteSpace=wrap;rounded=0;rotation=-90;" vertex="1" parent="1">
          <mxGeometry x="264" y="371.25" width="112.5" height="30" as="geometry" />
        </mxCell>
        <mxCell id="yORRglNltTWxj8U87w2F-11" value="Wachstum" style="text;html=1;align=left;verticalAlign=middle;whiteSpace=wrap;rounded=0;rotation=-90;" vertex="1" parent="1">
          <mxGeometry x="343" y="371.25" width="112.5" height="30" as="geometry" />
        </mxCell>
        <mxCell id="yORRglNltTWxj8U87w2F-12" value="Reife" style="text;html=1;align=left;verticalAlign=middle;whiteSpace=wrap;rounded=0;rotation=-90;" vertex="1" parent="1">
          <mxGeometry x="423" y="371.25" width="112.5" height="30" as="geometry" />
        </mxCell>
        <mxCell id="yORRglNltTWxj8U87w2F-13" value="Sättigung" style="text;html=1;align=left;verticalAlign=middle;whiteSpace=wrap;rounded=0;rotation=-90;" vertex="1" parent="1">
          <mxGeometry x="504" y="371.25" width="112.5" height="30" as="geometry" />
        </mxCell>
        <mxCell id="yORRglNltTWxj8U87w2F-14" value="Rückgang" style="text;html=1;align=left;verticalAlign=middle;whiteSpace=wrap;rounded=0;rotation=-90;" vertex="1" parent="1">
          <mxGeometry x="599" y="371.25" width="112.5" height="30" as="geometry" />
        </mxCell>
        <mxCell id="yORRglNltTWxj8U87w2F-16" value="Umsatz" style="text;html=1;align=center;verticalAlign=middle;whiteSpace=wrap;rounded=0;rotation=0;fillColor=none;strokeColor=none;fontColor=#82B366;" vertex="1" parent="1">
          <mxGeometry x="620.25" y="475" width="70" height="25" as="geometry" />
        </mxCell>
        <mxCell id="yORRglNltTWxj8U87w2F-1" value="" style="curved=1;endArrow=classic;html=1;rounded=0;fillColor=#e1d5e7;strokeColor=#9673a6;strokeWidth=2;dashed=1;" edge="1" parent="1">
          <mxGeometry width="50" height="50" relative="1" as="geometry">
            <mxPoint x="200" y="640" as="sourcePoint" />
            <mxPoint x="700" y="640" as="targetPoint" />
            <Array as="points">
              <mxPoint x="310" y="730" />
              <mxPoint x="530" y="420" />
            </Array>
          </mxGeometry>
        </mxCell>
        <mxCell id="hARTjh3Sy_JEfjSnx1Wy-9" value="" style="curved=1;endArrow=classic;html=1;rounded=0;fillColor=#d5e8d4;strokeColor=#82b366;strokeWidth=2;" parent="1" edge="1">
          <mxGeometry width="50" height="50" relative="1" as="geometry">
            <mxPoint x="280" y="640" as="sourcePoint" />
            <mxPoint x="700" y="600" as="targetPoint" />
            <Array as="points">
              <mxPoint x="460" y="320" />
            </Array>
          </mxGeometry>
        </mxCell>
        <mxCell id="yORRglNltTWxj8U87w2F-17" value="Break Even" style="text;html=1;align=center;verticalAlign=middle;whiteSpace=wrap;rounded=0;rotation=0;fillColor=default;strokeColor=none;fontColor=#6C8EBF;" vertex="1" parent="1">
          <mxGeometry x="400" y="655" width="70" height="15" as="geometry" />
        </mxCell>
        <mxCell id="yORRglNltTWxj8U87w2F-20" value="" style="endArrow=none;dashed=1;html=1;strokeWidth=1;rounded=0;fillColor=#f5f5f5;strokeColor=#C4C4C4;jumpSize=6;" edge="1" parent="1" target="yORRglNltTWxj8U87w2F-19">
          <mxGeometry width="50" height="50" relative="1" as="geometry">
            <mxPoint x="360" y="700" as="sourcePoint" />
            <mxPoint x="360" y="360" as="targetPoint" />
          </mxGeometry>
        </mxCell>
        <mxCell id="yORRglNltTWxj8U87w2F-21" value="" style="endArrow=blockThin;html=1;rounded=0;exitX=0;exitY=0.25;exitDx=0;exitDy=0;entryX=1;entryY=1;entryDx=0;entryDy=0;endFill=1;fillColor=#dae8fc;strokeColor=#6c8ebf;" edge="1" parent="1" source="yORRglNltTWxj8U87w2F-17" target="yORRglNltTWxj8U87w2F-19">
          <mxGeometry width="50" height="50" relative="1" as="geometry">
            <mxPoint x="390" y="610" as="sourcePoint" />
            <mxPoint x="380" y="660" as="targetPoint" />
          </mxGeometry>
        </mxCell>
        <mxCell id="yORRglNltTWxj8U87w2F-22" value="" style="endArrow=blockThin;html=1;rounded=0;endFill=1;fillColor=#d5e8d4;strokeColor=#82b366;" edge="1" parent="1">
          <mxGeometry width="50" height="50" relative="1" as="geometry">
            <mxPoint x="632" y="494" as="sourcePoint" />
            <mxPoint x="612" y="514" as="targetPoint" />
            <Array as="points">
              <mxPoint x="632" y="494" />
            </Array>
          </mxGeometry>
        </mxCell>
        <mxCell id="yORRglNltTWxj8U87w2F-24" value="" style="endArrow=blockThin;html=1;rounded=0;exitX=0;exitY=0.25;exitDx=0;exitDy=0;entryX=1;entryY=1;entryDx=0;entryDy=0;endFill=1;fillColor=#e1d5e7;strokeColor=#9673a6;" edge="1" parent="1">
          <mxGeometry width="50" height="50" relative="1" as="geometry">
            <mxPoint x="451.5" y="583" as="sourcePoint" />
            <mxPoint x="428.5" y="564" as="targetPoint" />
          </mxGeometry>
        </mxCell>
        <mxCell id="yORRglNltTWxj8U87w2F-25" value="" style="ellipse;whiteSpace=wrap;html=1;aspect=fixed;fillColor=#f8cecc;strokeColor=#b85450;" vertex="1" parent="1">
          <mxGeometry x="202.25" y="642" width="10" height="10" as="geometry" />
        </mxCell>
        <mxCell id="yORRglNltTWxj8U87w2F-26" value="" style="endArrow=blockThin;html=1;rounded=0;endFill=1;fillColor=#f8cecc;strokeColor=#b85450;entryX=1;entryY=1;entryDx=0;entryDy=0;exitX=0;exitY=0;exitDx=0;exitDy=0;" edge="1" parent="1" source="yORRglNltTWxj8U87w2F-28" target="yORRglNltTWxj8U87w2F-25">
          <mxGeometry width="50" height="50" relative="1" as="geometry">
            <mxPoint x="290" y="690" as="sourcePoint" />
            <mxPoint x="250" y="670" as="targetPoint" />
          </mxGeometry>
        </mxCell>
        <mxCell id="yORRglNltTWxj8U87w2F-28" value="Kapitalbedarf" style="text;html=1;align=center;verticalAlign=middle;whiteSpace=wrap;rounded=0;rotation=0;fillColor=default;strokeColor=none;fontColor=#B85450;" vertex="1" parent="1">
          <mxGeometry x="233" y="679" width="74.25" height="15" as="geometry" />
        </mxCell>
        <mxCell id="vn1dnEoQ3g9eWZXEqQMI-4" value="" style="endArrow=classic;html=1;rounded=0;" parent="1" edge="1">
          <mxGeometry width="50" height="50" relative="1" as="geometry">
            <mxPoint x="200" y="700" as="sourcePoint" />
            <mxPoint x="200" y="360" as="targetPoint" />
          </mxGeometry>
        </mxCell>
        <mxCell id="vn1dnEoQ3g9eWZXEqQMI-3" value="" style="endArrow=classic;html=1;rounded=0;" parent="1" edge="1" target="vn1dnEoQ3g9eWZXEqQMI-14">
          <mxGeometry width="50" height="50" relative="1" as="geometry">
            <mxPoint x="200" y="640" as="sourcePoint" />
            <mxPoint x="540" y="640" as="targetPoint" />
          </mxGeometry>
        </mxCell>
        <mxCell id="yORRglNltTWxj8U87w2F-19" value="" style="ellipse;whiteSpace=wrap;html=1;aspect=fixed;fillColor=#dae8fc;strokeColor=#6c8ebf;" vertex="1" parent="1">
          <mxGeometry x="354.25" y="635" width="10" height="10" as="geometry" />
        </mxCell>
      </root>
    </mxGraphModel>
  </diagram>
</mxfile>
